# xmcd CD database file generated by Grip 3.2.0
# 
# Track frame offsets:
#       150
#       15622
#       25863
#       40963
#       57304
#       68284
#       80542
#       90275
#       103850
#       124157
#       133500
#       148278
#       163220
#       176880
#       191242
#       203989
#       217078
#       238004
#       247035
#       261184
# 
# Disc length: 3681 seconds
# 
# Revision: 1
# Processed by: cddbd v1.5.1PL2 Copyright (c) Steve Scherf et al.
# Submitted via: Grip 3.2.0
# 
DISCID=2c0e5f14
DTITLE=Various Artist - 1. velký trampský zpěvnik  Ce - Gen
DYEAR=2005
DGENRE=Country
TTITLE0=Černá Mary
TTITLE1=Černé sombrero
TTITLE2=Černý muž
TTITLE3=Dájo nevolej
TTITLE4=Dakota
TTITLE5=Dál, dál, dál
TTITLE6=Dany Truck
TTITLE7=Diger
TTITLE8=Dívka z Cheyenne
TTITLE9=Dlouhá cesta
TTITLE10=Do pokeru
TTITLE11=Don Pedro
TTITLE12=Doney Gal
TTITLE13=Drsňák
TTITLE14=Dřevorubecký bál
TTITLE15=Dva trempové
TTITLE16=Dvě řeky
TTITLE17=El capitano
TTITLE18=Frankie Dlouhán
TTITLE19=Generál
EXTD=Vložila Agina
EXTT0=
EXTT1=
EXTT2=
EXTT3=
EXTT4=
EXTT5=
EXTT6=
EXTT7=
EXTT8=
EXTT9=
EXTT10=
EXTT11=
EXTT12=
EXTT13=
EXTT14=
EXTT15=
EXTT16=
EXTT17=
EXTT18=
EXTT19=
PLAYORDER=
